<svg width="540.000000" height="540.000000" viewBox="0 0 540 540" fill="none" xmlns="http://www.w3.org/2000/svg" xmlns:xlink="http://www.w3.org/1999/xlink">
	<defs/>
	<path id="Vector" d="M0 0L0 130.345L130.346 130.345L130.346 0L0 0ZM204.828 0L186.207 0L186.207 18.6206L204.828 18.6206L204.828 37.2412L223.449 37.2412L223.449 74.4829L242.068 74.4829L242.068 55.8623L260.689 55.8623L260.689 37.2412L242.068 37.2412L242.068 18.6206L223.449 18.6206L223.449 0L204.828 0ZM297.932 0L279.311 0L279.311 18.6206L297.932 18.6206L297.932 0ZM353.793 0L335.172 0L335.172 18.6206L353.793 18.6206L353.793 0ZM391.035 0L372.414 0L372.414 18.6206L353.793 18.6206L353.793 37.2412L372.414 37.2412L372.414 55.8623L353.793 55.8623L335.172 55.8623L335.172 18.6206L316.551 18.6206L297.932 18.6206L297.932 37.2412L316.551 37.2412L316.551 93.1035L353.793 93.1035L353.793 74.4829L391.035 74.4829L391.035 0ZM540 0L409.654 0L409.654 130.345L540 130.345L540 0ZM18.6211 18.6206L111.725 18.6206L111.725 111.724L18.6211 111.724L18.6211 18.6206ZM186.207 18.6206L167.586 18.6206L148.965 18.6206L148.965 55.8623L167.586 55.8623L167.586 37.2412L186.207 37.2412L186.207 18.6206ZM521.379 18.6206L521.379 111.724L428.275 111.724L428.275 18.6206L521.379 18.6206ZM93.1035 37.2412L37.2422 37.2412L37.2422 93.1035L93.1035 93.1035L93.1035 37.2412ZM502.758 93.1035L502.758 37.2412L446.896 37.2412L446.896 93.1035L502.758 93.1035ZM186.207 55.8623L167.586 55.8623L167.586 74.4829L167.586 111.724L186.207 111.724L186.207 93.1035L204.828 93.1035L204.828 111.724L223.449 111.724L223.449 74.4829L204.828 74.4829L186.207 74.4829L186.207 55.8623ZM297.932 55.8623L279.311 55.8623L279.311 74.4829L297.932 74.4829L297.932 55.8623ZM260.689 74.4829L242.068 74.4829L242.068 111.724L260.689 111.724L260.689 93.1035L279.311 93.1035L279.311 74.4829L260.689 74.4829ZM316.551 93.1035L297.932 93.1035L297.932 167.586L316.551 167.586L316.551 148.965L353.793 148.965L353.793 111.724L335.172 111.724L335.172 130.345L316.551 130.345L316.551 93.1035ZM167.586 111.724L148.965 111.724L148.965 130.345L167.586 130.345L167.586 111.724ZM204.828 111.724L186.207 111.724L186.207 130.345L204.828 130.345L204.828 111.724ZM242.068 111.724L223.449 111.724L223.449 130.345L204.828 130.345L204.828 148.965L242.068 148.965L242.068 111.724ZM279.311 111.724L260.689 111.724L260.689 130.345L279.311 130.345L279.311 111.724ZM391.035 111.724L372.414 111.724L372.414 148.965L353.793 148.965L353.793 167.586L391.035 167.586L391.035 111.724ZM186.207 130.345L167.586 130.345L167.586 148.965L186.207 148.965L186.207 130.345ZM37.2422 148.965L18.6211 148.965L18.6211 167.586L37.2422 167.586L37.2422 186.207L55.8613 186.207L55.8613 167.586L74.4824 167.586L74.4824 148.965L37.2422 148.965ZM111.725 148.965L93.1035 148.965L93.1035 167.586L130.346 167.586L130.346 148.965L111.725 148.965ZM279.311 148.965L260.689 148.965L260.689 186.207L279.311 186.207L279.311 148.965ZM502.758 148.965L484.139 148.965L484.139 167.586L502.758 167.586L502.758 186.207L521.379 186.207L521.379 204.828L521.379 223.448L540 223.448L540 167.586L521.379 167.586L521.379 148.965L502.758 148.965ZM93.1035 167.586L74.4824 167.586L74.4824 186.207L93.1035 186.207L93.1035 167.586ZM335.172 167.586L316.551 167.586L316.551 186.207L297.932 186.207L279.311 186.207L279.311 204.828L297.932 204.828L297.932 223.448L279.311 223.448L279.311 242.069L279.311 260.689L242.068 260.689L242.068 279.311L223.449 279.311L223.449 297.931L242.068 297.931L242.068 316.552L204.828 316.552L204.828 335.172L242.068 335.172L242.068 353.793L260.689 353.793L260.689 297.931L279.311 297.931L279.311 279.311L297.932 279.311L297.932 260.689L316.551 260.689L316.551 223.448L372.414 223.448L372.414 204.828L353.793 204.828L353.793 186.207L335.172 186.207L335.172 167.586ZM186.207 167.586L167.586 167.586L167.586 204.828L186.207 204.828L186.207 186.207L223.449 186.207L223.449 167.586L186.207 167.586ZM428.275 167.586L409.654 167.586L409.654 186.207L428.275 186.207L428.275 167.586ZM18.6211 186.207L0 186.207L0 242.069L18.6211 242.069L18.6211 204.828L37.2422 204.828L37.2422 186.207L18.6211 186.207ZM111.725 186.207L93.1035 186.207L93.1035 223.448L111.725 223.448L111.725 204.828L148.965 204.828L148.965 186.207L111.725 186.207ZM242.068 186.207L223.449 186.207L223.449 204.828L242.068 204.828L242.068 223.448L279.311 223.448L279.311 204.828L260.689 204.828L260.689 186.207L242.068 186.207ZM409.654 186.207L391.035 186.207L391.035 223.448L409.654 223.448L409.654 242.069L428.275 242.069L428.275 260.689L465.518 260.689L465.518 242.069L446.896 242.069L446.896 223.448L465.518 223.448L465.518 186.207L446.896 186.207L446.896 204.828L409.654 204.828L409.654 186.207ZM502.758 186.207L484.139 186.207L484.139 260.689L502.758 260.689L502.758 242.069L521.379 242.069L521.379 223.448L502.758 223.448L502.758 186.207ZM74.4824 186.207L55.8613 186.207L55.8613 204.828L74.4824 204.828L74.4824 186.207ZM167.586 204.828L148.965 204.828L148.965 242.069L167.586 242.069L167.586 260.689L148.965 260.689L148.965 279.311L130.346 279.311L130.346 297.931L148.965 297.931L148.965 316.552L130.346 316.552L130.346 335.172L111.725 335.172L111.725 353.793L204.828 353.793L204.828 335.172L167.586 335.172L167.586 316.552L186.207 316.552L186.207 297.931L204.828 297.931L204.828 260.689L186.207 260.689L186.207 242.069L204.828 242.069L204.828 260.689L223.449 260.689L223.449 223.448L204.828 223.448L204.828 204.828L186.207 204.828L186.207 223.448L167.586 223.448L167.586 204.828ZM55.8613 223.448L37.2422 223.448L37.2422 242.069L55.8613 242.069L55.8613 223.448ZM130.346 223.448L111.725 223.448L111.725 242.069L130.346 242.069L130.346 223.448ZM391.035 223.448L372.414 223.448L372.414 242.069L335.172 242.069L335.172 260.689L316.551 260.689L316.551 297.931L297.932 297.931L297.932 335.172L279.311 335.172L279.311 353.793L316.551 353.793L316.551 316.552L353.793 316.552L353.793 260.689L409.654 260.689L409.654 242.069L391.035 242.069L391.035 223.448ZM37.2422 242.069L18.6211 242.069L18.6211 260.689L37.2422 260.689L37.2422 242.069ZM74.4824 242.069L55.8613 242.069L55.8613 260.689L37.2422 260.689L37.2422 297.931L111.725 297.931L111.725 279.311L130.346 279.311L130.346 260.689L93.1035 260.689L93.1035 279.311L74.4824 279.311L74.4824 260.689L93.1035 260.689L93.1035 242.069L74.4824 242.069ZM540 242.069L521.379 242.069L521.379 260.689L521.379 279.311L540 279.311L540 242.069ZM18.6211 279.311L0 279.311L0 297.931L18.6211 297.931L18.6211 279.311ZM409.654 279.311L391.035 279.311L391.035 297.931L409.654 297.931L409.654 279.311ZM465.518 279.311L446.896 279.311L446.896 297.931L409.654 297.931L409.654 335.172L446.896 335.172L446.896 353.793L465.518 353.793L465.518 335.172L484.139 335.172L484.139 316.552L502.758 316.552L502.758 279.311L465.518 279.311ZM37.2422 297.931L18.6211 297.931L18.6211 316.552L18.6211 335.172L37.2422 335.172L37.2422 372.414L18.6211 372.414L18.6211 391.035L55.8613 391.035L55.8613 372.414L74.4824 372.414L74.4824 391.035L130.346 391.035L130.346 372.414L111.725 372.414L111.725 353.793L74.4824 353.793L74.4824 316.552L37.2422 316.552L37.2422 297.931ZM130.346 297.931L111.725 297.931L111.725 316.552L130.346 316.552L130.346 297.931ZM391.035 297.931L372.414 297.931L372.414 316.552L353.793 316.552L353.793 335.172L335.172 335.172L335.172 353.793L353.793 353.793L353.793 372.414L372.414 372.414L372.414 335.172L391.035 335.172L391.035 316.552L391.035 297.931ZM111.725 316.552L93.1035 316.552L93.1035 335.172L111.725 335.172L111.725 316.552ZM521.379 316.552L502.758 316.552L502.758 335.172L521.379 335.172L521.379 353.793L540 353.793L540 316.552L521.379 316.552ZM18.6211 335.172L0 335.172L0 353.793L18.6211 353.793L18.6211 335.172ZM409.654 335.172L391.035 335.172L391.035 353.793L409.654 353.793L409.654 335.172ZM502.758 335.172L484.139 335.172L484.139 353.793L502.758 353.793L502.758 335.172ZM223.449 353.793L204.828 353.793L204.828 372.414L223.449 372.414L223.449 391.035L204.828 391.035L204.828 409.655L223.449 409.655L223.449 428.276L204.828 428.276L204.828 446.896L242.068 446.896L242.068 428.276L260.689 428.276L260.689 446.896L279.311 446.896L279.311 428.276L297.932 428.276L297.932 409.655L316.551 409.655L316.551 391.035L297.932 391.035L279.311 391.035L260.689 391.035L260.689 409.655L242.068 409.655L242.068 391.035L260.689 391.035L260.689 372.414L242.068 372.414L242.068 353.793L223.449 353.793ZM279.311 353.793L260.689 353.793L260.689 372.414L279.311 372.414L279.311 353.793ZM186.207 372.414L167.586 372.414L167.586 391.035L148.965 391.035L148.965 409.655L167.586 409.655L167.586 428.276L148.965 428.276L148.965 446.896L186.207 446.896L186.207 428.276L204.828 428.276L204.828 409.655L186.207 409.655L186.207 372.414ZM335.172 372.414L316.551 372.414L316.551 391.035L335.172 391.035L335.172 372.414ZM391.035 372.414L372.414 372.414L372.414 391.035L353.793 391.035L353.793 409.655L372.414 409.655L372.414 446.896L353.793 446.896L353.793 428.276L335.172 428.276L335.172 484.138L316.551 484.138L316.551 465.517L297.932 465.517L297.932 484.138L279.311 484.138L279.311 502.759L297.932 502.759L297.932 521.379L316.551 521.379L316.551 502.759L335.172 502.759L335.172 521.379L353.793 521.379L353.793 502.759L409.654 502.759L409.654 484.138L372.414 484.138L372.414 465.517L409.654 465.517L409.654 484.138L428.275 484.138L428.275 465.517L465.518 465.517L465.518 484.138L484.139 484.138L484.139 465.517L502.758 465.517L502.758 484.138L521.379 484.138L521.379 446.896L540 446.896L540 409.655L521.379 409.655L521.379 428.276L502.758 428.276L502.758 409.655L484.139 409.655L484.139 428.276L465.518 428.276L465.518 372.414L391.035 372.414ZM391.035 391.035L446.896 391.035L446.896 446.896L391.035 446.896L391.035 391.035ZM521.379 391.035L502.758 391.035L502.758 409.655L521.379 409.655L521.379 391.035ZM0 540L130.346 540L130.346 409.655L0 409.655L0 540ZM335.172 409.655L316.551 409.655L316.551 428.276L335.172 428.276L335.172 409.655ZM428.275 409.655L409.654 409.655L409.654 428.276L428.275 428.276L428.275 409.655ZM18.6211 521.379L18.6211 428.276L111.725 428.276L111.725 521.379L18.6211 521.379ZM316.551 428.276L297.932 428.276L297.932 446.896L316.551 446.896L316.551 428.276ZM37.2422 446.896L37.2422 502.759L93.1035 502.759L93.1035 446.896L37.2422 446.896ZM204.828 446.896L186.207 446.896L186.207 465.517L204.828 465.517L204.828 446.896ZM297.932 446.896L279.311 446.896L279.311 465.517L297.932 465.517L297.932 446.896ZM167.586 465.517L148.965 465.517L148.965 521.379L186.207 521.379L186.207 540L242.068 540L242.068 521.379L223.449 521.379L223.449 502.759L186.207 502.759L186.207 484.138L167.586 484.138L167.586 465.517ZM279.311 465.517L260.689 465.517L260.689 484.138L279.311 484.138L279.311 465.517ZM242.068 484.138L223.449 484.138L223.449 502.759L242.068 502.759L242.068 521.379L279.311 521.379L279.311 502.759L260.689 502.759L260.689 484.138L242.068 484.138ZM446.896 484.138L428.275 484.138L428.275 502.759L446.896 502.759L446.896 521.379L465.518 521.379L465.518 484.138L446.896 484.138ZM540 484.138L521.379 484.138L521.379 502.759L540 502.759L540 484.138ZM428.275 502.759L409.654 502.759L409.654 521.379L391.035 521.379L372.414 521.379L372.414 540L428.275 540L428.275 502.759ZM502.758 502.759L484.139 502.759L484.139 521.379L502.758 521.379L502.758 540L521.379 540L521.379 521.379L521.379 502.759L502.758 502.759ZM297.932 521.379L279.311 521.379L279.311 540L297.932 540L297.932 521.379Z" fill="#FFFFFF" fill-opacity="1.000000" fill-rule="evenodd"/>
</svg>
