<svg width="29.865234" height="24.000000" viewBox="0 0 29.8652 24" fill="none" xmlns="http://www.w3.org/2000/svg" xmlns:xlink="http://www.w3.org/1999/xlink">
	<defs/>
	<path id="Vector" d="M8.125 0C3.63867 0 0 3.65137 0 8.13379L0 15.8662C0 20.3486 3.64258 24 8.125 24L21.7324 24C26.2148 24 29.8652 20.3486 29.8652 15.8662L29.8652 8.13379C29.8652 3.64746 26.2148 0 21.7324 0L8.125 0ZM8.125 1.55371L21.7324 1.55371C25.3574 1.55371 28.3125 4.50488 28.3125 8.13379L28.3125 15.8662C28.3125 19.4912 25.3613 22.4463 21.7324 22.4463L8.125 22.4463C4.50195 22.4463 1.54688 19.4912 1.54688 15.8662L1.54688 8.13379C1.54688 4.50488 4.49609 1.55371 8.125 1.55371ZM8.58008 8.18652C8.47656 8.16602 8.37109 8.18359 8.27734 8.24707L7.23242 8.94434C7.04102 9.07324 6.99414 9.33008 7.125 9.52051L8.0957 10.9609L6.35938 10.9609C6.12695 10.9609 5.94336 11.1494 5.94336 11.3779L5.94336 12.6211C5.94336 12.8506 6.13086 13.0381 6.35938 13.0381L8.0957 13.0381L7.125 14.4785C6.99805 14.6689 7.04102 14.9307 7.23242 15.0547L8.27734 15.752C8.46875 15.8799 8.71875 15.8281 8.8457 15.6377L10.0527 13.8643L11.25 15.6377C11.377 15.8281 11.6348 15.8799 11.8262 15.752L12.8652 15.0547C13.0547 14.9268 13.1094 14.665 12.9785 14.4785L12.0078 13.0381L13.7441 13.0381C13.9727 13.0381 14.1523 12.8506 14.1523 12.6211L14.1523 11.3779C14.1562 11.1494 13.9727 10.9609 13.7441 10.9609L12.0078 10.9609L12.9785 9.52051C13.1055 9.33105 13.0547 9.07324 12.8652 8.94434L11.8262 8.24707C11.6309 8.11914 11.377 8.1709 11.25 8.36133L10.0527 10.1348L8.8457 8.36133C8.7832 8.2666 8.68555 8.20703 8.58008 8.18652ZM18.6406 8.18652C18.5352 8.16602 18.4219 8.18359 18.3281 8.24707L17.2832 8.94434C17.0938 9.07324 17.0449 9.33008 17.1777 9.52051L18.1465 10.9609L16.4121 10.9609C16.1777 10.9609 16.002 11.1494 16.002 11.3779L16.002 12.6211C16.002 12.8506 16.1816 13.0381 16.4121 13.0381L18.1465 13.0381L17.1777 14.4785C17.0488 14.6689 17.0918 14.9307 17.2832 15.0547L18.3281 15.752C18.5195 15.8799 18.7734 15.8281 18.8984 15.6377L20.1035 13.8643L21.3008 15.6377C21.4258 15.8281 21.6914 15.8799 21.877 15.752L22.916 15.0547C23.1055 14.9268 23.1602 14.665 23.0293 14.4785L22.0586 13.0381L23.7949 13.0381C24.0273 13.0381 24.2051 12.8506 24.2051 12.6211L24.2051 11.3779C24.207 11.1494 24.0273 10.9609 23.7949 10.9609L22.0586 10.9609L23.0293 9.52051C23.1582 9.33105 23.1055 9.07324 22.916 8.94434L21.877 8.24707C21.6875 8.11914 21.4258 8.1709 21.3008 8.36133L20.1035 10.1348L18.8984 8.36133C18.8359 8.2666 18.7441 8.20703 18.6406 8.18652Z" fill="current" fill-opacity="1.000000" fill-rule="nonzero"/>
</svg>
