<svg width="32.998047" height="27.011719" viewBox="0 0 32.998 27.0117" fill="none" xmlns="http://www.w3.org/2000/svg" xmlns:xlink="http://www.w3.org/1999/xlink">
	<defs/>
	<path id="Vector" d="M24.5996 21.6055C22.2695 23.3828 19.4297 24.3672 16.5 24.415C6.95508 24.415 1.5 13.5059 1.5 13.5059C3.19531 10.3447 5.54883 7.58301 8.40039 5.40625M13.6367 2.92383C14.5742 2.7041 15.5352 2.59473 16.5 2.59668C26.0449 2.59668 31.5 13.5059 31.5 13.5059C30.6719 15.0547 29.6855 16.5127 28.5547 17.8555M19.3906 16.3965C19.0156 16.7988 18.5645 17.1211 18.0625 17.3447C17.5605 17.5684 17.0195 17.6885 16.4707 17.6982C15.9199 17.708 15.375 17.6064 14.8652 17.4014C14.3555 17.1953 13.8945 16.8887 13.5059 16.501C13.1172 16.1123 12.8105 15.6494 12.6055 15.1396C12.3984 14.6309 12.2988 14.085 12.3086 13.5361C12.3164 12.9863 12.4375 12.4443 12.6621 11.9434C12.8848 11.4414 13.207 10.9893 13.6094 10.6152M4.5 1.50586L28.5 25.5059" stroke="current" stroke-opacity="1.000000" stroke-width="3.000000" stroke-linejoin="round"/>
</svg>
